<svg width="30" height="29" viewBox="0 0 30 29" fill="none" xmlns="http://www.w3.org/2000/svg">
<path d="M11.6631 2.71875H3.95996C3.33433 2.71875 2.82715 3.22593 2.82715 3.85156V11.5547C2.82715 12.1803 3.33433 12.6875 3.95996 12.6875H11.6631C12.2887 12.6875 12.7959 12.1803 12.7959 11.5547V3.85156C12.7959 3.22593 12.2887 2.71875 11.6631 2.71875Z" fill="white" stroke="white" stroke-width="2" stroke-linecap="round" stroke-linejoin="round"/>
<path d="M25.2568 2.71875H17.5537C16.9281 2.71875 16.4209 3.22593 16.4209 3.85156V11.5547C16.4209 12.1803 16.9281 12.6875 17.5537 12.6875H25.2568C25.8825 12.6875 26.3896 12.1803 26.3896 11.5547V3.85156C26.3896 3.22593 25.8825 2.71875 25.2568 2.71875Z" fill="white" stroke="white" stroke-width="2" stroke-linecap="round" stroke-linejoin="round"/>
<path d="M11.6631 16.3125H3.95996C3.33433 16.3125 2.82715 16.8197 2.82715 17.4453V25.1484C2.82715 25.7741 3.33433 26.2812 3.95996 26.2812H11.6631C12.2887 26.2812 12.7959 25.7741 12.7959 25.1484V17.4453C12.7959 16.8197 12.2887 16.3125 11.6631 16.3125Z" fill="white" stroke="white" stroke-width="2" stroke-linecap="round" stroke-linejoin="round"/>
<path d="M25.2568 16.3125H17.5537C16.9281 16.3125 16.4209 16.8197 16.4209 17.4453V25.1484C16.4209 25.7741 16.9281 26.2812 17.5537 26.2812H25.2568C25.8825 26.2812 26.3896 25.7741 26.3896 25.1484V17.4453C26.3896 16.8197 25.8825 16.3125 25.2568 16.3125Z" fill="white" stroke="white" stroke-width="2" stroke-linecap="round" stroke-linejoin="round"/>
</svg>
