<svg width="34" height="27" viewBox="0 0 34 27" fill="none" xmlns="http://www.w3.org/2000/svg">
<path fill-rule="evenodd" clip-rule="evenodd" d="M15.8169 26.0939H13.2309C8.80832 26.0939 5.41366 22.5737 5.23334 18.4533H3.18356C1.42533 18.4533 0 17.028 0 15.2698V10.8128C0 6.59303 3.42079 3.17224 7.64055 3.17224H9.33845L9.14828 3.93292C10.1518 1.93253 12.2126 0.625366 14.5107 0.625366H18.5989C20.8948 0.625366 22.9539 1.93008 23.9585 3.92729L23.7697 3.17224H25.4676C29.6874 3.17224 33.1082 6.59303 33.1082 10.8128V15.2698C33.1082 17.028 31.6828 18.4533 29.9246 18.4533H27.8762C27.6959 22.5737 24.3013 26.0939 19.8787 26.0939H17.8169V20.6582C18.6793 20.1685 19.4445 19.1705 19.4445 18.332C19.4445 17.171 17.9778 16.7554 16.8168 16.7554C15.6559 16.7554 14.1892 17.171 14.1892 18.332C14.1892 19.1705 14.9544 20.1686 15.8169 20.6582V26.0939ZM20.7789 14.1681C21.9398 14.1681 22.881 13.2269 22.881 12.066C22.881 10.905 21.9398 9.96387 20.7789 9.96387C19.6179 9.96387 18.6768 10.905 18.6768 12.066C18.6768 13.2269 19.6179 14.1681 20.7789 14.1681ZM15.2408 12.066C15.2408 13.2269 14.2997 14.1681 13.1387 14.1681C11.9778 14.1681 11.0366 13.2269 11.0366 12.066C11.0366 10.905 11.9778 9.96387 13.1387 9.96387C14.2997 9.96387 15.2408 10.905 15.2408 12.066Z" fill="white"/>
</svg>
