<svg width="25" height="25" viewBox="0 0 25 25" fill="none" xmlns="http://www.w3.org/2000/svg">
<path d="M14.3598 25H9.85775C9.57566 25 9.30204 24.9026 9.08225 24.7239C8.86247 24.5452 8.70973 24.296 8.64936 24.0175L8.14597 21.6625C7.47444 21.3651 6.83769 20.9933 6.24744 20.5538L3.97538 21.285C3.70644 21.3717 3.41627 21.3628 3.15303 21.2598C2.8898 21.1568 2.66935 20.9659 2.52828 20.7188L0.272305 16.78C0.132722 16.5327 0.0803268 16.2448 0.12369 15.9634C0.167053 15.6821 0.303607 15.424 0.511013 15.2313L2.2735 13.6063C2.19335 12.8701 2.19335 12.1274 2.2735 11.3912L0.511013 9.77C0.303314 9.57722 0.166574 9.31884 0.123203 9.03723C0.0798331 8.75561 0.132406 8.46746 0.272305 8.22L2.52334 4.27875C2.6644 4.03164 2.88485 3.84074 3.14809 3.73773C3.41132 3.63473 3.7015 3.62583 3.97043 3.7125L6.24249 4.44375C6.54427 4.21875 6.85843 4.00875 7.18248 3.81875C7.4954 3.64125 7.81697 3.48 8.14597 3.33625L8.6506 0.98375C8.71067 0.705247 8.86313 0.45586 9.08268 0.276936C9.30224 0.0980123 9.5757 0.000299957 9.85775 0H14.3598C14.6419 0.000299957 14.9153 0.0980123 15.1349 0.276936C15.3544 0.45586 15.5069 0.705247 15.567 0.98375L16.0765 3.3375C16.7472 3.63658 17.3838 4.00834 17.9751 4.44625L20.2484 3.715C20.5171 3.62865 20.807 3.63771 21.07 3.7407C21.333 3.84369 21.5532 4.03441 21.6942 4.28125L23.9452 8.2225C24.2322 8.73125 24.1332 9.375 23.7065 9.77125L21.9441 11.3962C22.0242 12.1324 22.0242 12.8751 21.9441 13.6112L23.7065 15.2362C24.1332 15.6337 24.2322 16.2763 23.9452 16.785L21.6942 20.7262C21.5532 20.9734 21.3327 21.1643 21.0695 21.2673C20.8062 21.3703 20.5161 21.3792 20.2471 21.2925L17.9751 20.5612C17.3853 21.0004 16.7489 21.3719 16.0778 21.6687L15.567 24.0175C15.5066 24.2958 15.3541 24.5449 15.1345 24.7236C14.915 24.9022 14.6417 24.9998 14.3598 25ZM12.1038 7.5C10.7917 7.5 9.53335 8.02678 8.60554 8.96447C7.67774 9.90215 7.15651 11.1739 7.15651 12.5C7.15651 13.8261 7.67774 15.0979 8.60554 16.0355C9.53335 16.9732 10.7917 17.5 12.1038 17.5C13.4159 17.5 14.6743 16.9732 15.6021 16.0355C16.5299 15.0979 17.0512 13.8261 17.0512 12.5C17.0512 11.1739 16.5299 9.90215 15.6021 8.96447C14.6743 8.02678 13.4159 7.5 12.1038 7.5Z" fill="white"/>
</svg>
