<svg width="30" height="30" viewBox="0 0 30 30" fill="none" xmlns="http://www.w3.org/2000/svg">
<path d="M26.5625 5.75H20.9375V4.34375C20.9375 3.72215 20.6906 3.12601 20.251 2.68647C19.8115 2.24693 19.2154 2 18.5938 2H13.9062C13.2846 2 12.6885 2.24693 12.249 2.68647C11.8094 3.12601 11.5625 3.72215 11.5625 4.34375V5.75H5.9375C5.68886 5.75 5.4504 5.84877 5.27459 6.02459C5.09877 6.2004 5 6.43886 5 6.6875C5 6.93614 5.09877 7.1746 5.27459 7.35041C5.4504 7.52623 5.68886 7.625 5.9375 7.625H6.93359L8.04688 25.4914C8.13008 27.0646 9.33594 28.25 10.8594 28.25H21.6406C23.1717 28.25 24.3535 27.091 24.4531 25.4961L25.5664 7.625H26.5625C26.8111 7.625 27.0496 7.52623 27.2254 7.35041C27.4012 7.1746 27.5 6.93614 27.5 6.6875C27.5 6.43886 27.4012 6.2004 27.2254 6.02459C27.0496 5.84877 26.8111 5.75 26.5625 5.75ZM12.5334 24.5H12.5C12.257 24.5002 12.0235 24.406 11.8486 24.2373C11.6737 24.0687 11.5712 23.8387 11.5625 23.5959L11.0938 10.4709C11.0849 10.2223 11.1752 9.98028 11.3447 9.7982C11.5143 9.61612 11.7492 9.50886 11.9979 9.5C12.2465 9.49114 12.4885 9.58142 12.6705 9.75097C12.8526 9.92052 12.9599 10.1555 12.9688 10.4041L13.4375 23.5291C13.442 23.6522 13.4221 23.775 13.3791 23.8905C13.336 24.006 13.2707 24.1118 13.1867 24.202C13.1027 24.2921 13.0018 24.3649 12.8897 24.416C12.7776 24.4671 12.6565 24.4957 12.5334 24.5ZM17.1875 23.5625C17.1875 23.8111 17.0887 24.0496 16.9129 24.2254C16.7371 24.4012 16.4986 24.5 16.25 24.5C16.0014 24.5 15.7629 24.4012 15.5871 24.2254C15.4113 24.0496 15.3125 23.8111 15.3125 23.5625V10.4375C15.3125 10.1889 15.4113 9.9504 15.5871 9.77459C15.7629 9.59877 16.0014 9.5 16.25 9.5C16.4986 9.5 16.7371 9.59877 16.9129 9.77459C17.0887 9.9504 17.1875 10.1889 17.1875 10.4375V23.5625ZM19.0625 5.75H13.4375V4.34375C13.4368 4.282 13.4484 4.22072 13.4717 4.16353C13.495 4.10634 13.5295 4.05439 13.5732 4.01072C13.6169 3.96705 13.6688 3.93255 13.726 3.90924C13.7832 3.88594 13.8445 3.87429 13.9062 3.875H18.5938C18.6555 3.87429 18.7168 3.88594 18.774 3.90924C18.8312 3.93255 18.8831 3.96705 18.9268 4.01072C18.9705 4.05439 19.005 4.10634 19.0283 4.16353C19.0516 4.22072 19.0632 4.282 19.0625 4.34375V5.75ZM20.9375 23.5959C20.9288 23.8387 20.8263 24.0687 20.6514 24.2373C20.4765 24.406 20.243 24.5002 20 24.5H19.966C19.8429 24.4956 19.7219 24.467 19.6099 24.4158C19.4978 24.3647 19.397 24.2919 19.3131 24.2018C19.2292 24.1116 19.1639 24.0058 19.1209 23.8904C19.0779 23.7749 19.058 23.6522 19.0625 23.5291L19.5312 10.4041C19.5356 10.281 19.5642 10.1599 19.6154 10.0479C19.6666 9.93581 19.7393 9.83492 19.8295 9.75097C19.9196 9.66702 20.0254 9.60164 20.1408 9.55858C20.2563 9.51552 20.379 9.49561 20.5021 9.5C20.6253 9.50439 20.7463 9.53298 20.8584 9.58414C20.9704 9.63531 21.0713 9.70805 21.1553 9.7982C21.2392 9.88836 21.3046 9.99417 21.3477 10.1096C21.3907 10.225 21.4106 10.3478 21.4062 10.4709L20.9375 23.5959Z" fill="white"/>
</svg>
